<?xml version="1.0" encoding="UTF-8" standalone="no"?>
<svg
   xmlns:dc="http://purl.org/dc/elements/1.1/"
   xmlns:cc="http://creativecommons.org/ns#"
   xmlns:rdf="http://www.w3.org/1999/02/22-rdf-syntax-ns#"
   xmlns:svg="http://www.w3.org/2000/svg"
   xmlns="http://www.w3.org/2000/svg"
   xmlns:sodipodi="http://sodipodi.sourceforge.net/DTD/sodipodi-0.dtd"
   xmlns:inkscape="http://www.inkscape.org/namespaces/inkscape"
   id="svg4217"
   viewBox="0 0 744.09449 1052.3622"
   version="1.0"
   inkscape:version="0.48.4 r9939"
   width="100%"
   height="100%"
   sodipodi:docname="kdm_email.svg"
   inkscape:export-filename="/home/carl/src/dcpomatic/icons/kdm_email.png"
   inkscape:export-xdpi="6.5100002"
   inkscape:export-ydpi="6.5100002">
  <sodipodi:namedview
     pagecolor="#ffffff"
     bordercolor="#666666"
     borderopacity="1"
     objecttolerance="10"
     gridtolerance="10"
     guidetolerance="10"
     inkscape:pageopacity="0"
     inkscape:pageshadow="2"
     inkscape:window-width="1366"
     inkscape:window-height="714"
     id="namedview6320"
     showgrid="false"
     inkscape:zoom="0.60313323"
     inkscape:cx="-87.032436"
     inkscape:cy="195.645"
     inkscape:window-x="0"
     inkscape:window-y="27"
     inkscape:window-maximized="1"
     inkscape:current-layer="svg4217" />
  <defs
     id="defs4219">
    <linearGradient
       id="linearGradient3594"
       y2="742.5"
       gradientUnits="userSpaceOnUse"
       x2="-886.76001"
       gradientTransform="matrix(-0.84033,-0.84033,-0.84033,0.84033,214.12,-1075.4)"
       y1="742.5"
       x1="-772.01001">
      <stop
         id="stop4687"
         stop-color="#fff"
         offset="0" />
      <stop
         id="stop4689"
         stop-color="#fff"
         stop-opacity="0"
         offset="1" />
    </linearGradient>
    <linearGradient
       id="linearGradient3601"
       y2="613.94"
       gradientUnits="userSpaceOnUse"
       x2="385.04001"
       gradientTransform="matrix(0.70711,-0.70711,0.70711,0.70711,-126.18,372.21)"
       y1="63.870998"
       x1="386.39001">
      <stop
         id="stop3797"
         stop-color="#ffe800"
         offset="0" />
      <stop
         id="stop3799"
         stop-color="#dfb300"
         offset="1" />
    </linearGradient>
    <linearGradient
       id="linearGradient3609"
       y2="161.84"
       gradientUnits="userSpaceOnUse"
       x2="212.92999"
       y1="358.29999"
       x1="409.38">
      <stop
         id="stop4034"
         stop-color="#dfb300"
         offset="0" />
      <stop
         id="stop3374"
         stop-color="#dfb300"
         offset=".5" />
      <stop
         id="stop3376"
         stop-color="#dfb300"
         offset="1" />
    </linearGradient>
    <linearGradient
       id="linearGradient3632"
       y2="448.35001"
       gradientUnits="userSpaceOnUse"
       x2="382.89999"
       gradientTransform="matrix(0.70711,-0.70711,0.70711,0.70711,-126.18,372.21)"
       y1="448.35001"
       x1="403.63">
      <stop
         id="stop3636"
         stop-color="#ffe800"
         stop-opacity=".39216"
         offset="0" />
      <stop
         id="stop3638"
         stop-color="#dfb300"
         stop-opacity=".39216"
         offset="1" />
    </linearGradient>
  </defs>
  <g
     id="layer1"
     transform="translate(-77.797413,384.00351)">
    <path
       id="path6625"
       d="m 227.2,177.73 c -46.65,46.65 -46.67,122.4 -0.03,169.04 30.92,30.92 74.6,41.33 114.12,31.27 l 22.3,22.29 39.67,4.86 4.91,39.73 39.68,4.86 4.89,39.7 39.72,4.91 4.86,39.68 70.53,-5.91 5.66,-0.46 1.07,-12.21 5.62,-63.77 L 558.13,429.65 536.1,407.62 514.05,385.57 492.02,363.55 469.97,341.5 447.92,319.45 425.87,297.4 c 12.55,-40.94 2.66,-87.25 -29.71,-119.62 -46.64,-46.64 -122.32,-46.69 -168.96,-0.05 z m 24.21,24.32 c 21.41,-21.41 52.07,-25.54 68.44,-9.17 16.37,16.37 12.26,47.05 -9.14,68.46 -21.41,21.41 -52.07,25.49 -68.44,9.12 -16.37,-16.37 -12.27,-47.01 9.14,-68.41 z"
       style="color:#000000;fill:url(#linearGradient3601)"
       inkscape:connector-curvature="0" />
    <path
       id="path6871"
       d="m 388.43,339.03 c -1.68,1.68 -2.88,3.59 -3.69,5.59 -0.74,1.82 -1.28,3.93 -1.28,6.32 0,2.4 0.52,4.53 1.26,6.35 0.77,1.9 2.01,3.91 3.69,5.59 L 551.53,526 l 3.27,3.27 4.62,-0.38 5.68,-0.46 8.39,-0.71 0.75,-8.4 1.06,-12.19 0.4,-4.64 -3.29,-3.3 -160.16,-160.16 c -1.68,-1.68 -3.68,-2.91 -5.59,-3.69 -1.81,-0.73 -3.92,-1.28 -6.32,-1.28 -2.4,0 -4.51,0.55 -6.32,1.28 -1.91,0.78 -3.91,2.01 -5.59,3.69 z"
       style="color:#000000;fill:url(#linearGradient3632)"
       inkscape:connector-curvature="0" />
    <path
       id="path2365"
       d="m 239.44,192.85 c -2.29,2.41 -4.43,4.92 -6.43,7.49 2.5,-3.23 5.25,-6.31 8.22,-9.28 -0.6,0.6 -1.21,1.18 -1.79,1.79 z m 3.62,-3.58 c 4.29,-4.07 8.84,-7.67 13.61,-10.83 -4.76,3.15 -9.33,6.77 -13.61,10.83 z m -11.62,13.17 c -0.93,1.27 -1.81,2.53 -2.67,3.82 0.85,-1.29 1.74,-2.56 2.67,-3.82 z m -2.81,4.05 c -0.89,1.35 -1.76,2.74 -2.58,4.13 0.82,-1.4 1.68,-2.77 2.58,-4.13 z m -2.58,4.13 c -1.66,2.8 -3.16,5.65 -4.51,8.57 1.35,-2.91 2.86,-5.78 4.51,-8.57 z m -4.51,8.57 c -1.35,2.92 -2.55,5.9 -3.6,8.91 1.05,-3.01 2.25,-6 3.6,-8.91 z m -3.6,8.91 c -1.05,3 -1.97,6.05 -2.72,9.12 0.75,-3.08 1.67,-6.12 2.72,-9.12 z m -2.72,9.12 c -0.31,1.27 -0.58,2.53 -0.84,3.8 0.26,-1.27 0.53,-2.53 0.84,-3.8 z m 43.53,-60.1 c 1.38,-0.87 2.79,-1.69 4.2,-2.48 -1.41,0.79 -2.82,1.61 -4.2,2.48 z m 8.49,-4.73 c 1.44,-0.71 2.88,-1.37 4.35,-2.01 -1.46,0.63 -2.92,1.3 -4.35,2.01 z m 17.89,-6.76 c 1.53,-0.41 3.06,-0.77 4.6,-1.11 -1.54,0.34 -3.07,0.7 -4.6,1.11 z m 4.62,-1.13 c 1.54,-0.34 3.09,-0.62 4.64,-0.88 -1.55,0.26 -3.1,0.54 -4.64,0.88 z m -75.52,77.34 c -0.16,0.79 -0.29,1.58 -0.42,2.36 0.13,-0.77 0.27,-1.58 0.42,-2.36 z m -0.42,2.36 c -0.13,0.78 -0.27,1.55 -0.38,2.33 0.11,-0.79 0.24,-1.55 0.38,-2.33 z m -0.69,4.67 c -0.09,0.78 -0.17,1.57 -0.24,2.36 0.07,-0.78 0.15,-1.58 0.24,-2.36 z m -0.44,4.73 c -0.06,0.78 -0.1,1.56 -0.13,2.34 0.03,-0.79 0.07,-1.56 0.13,-2.34 z m 93.47,-91.26 c 1.18,-0.06 2.37,-0.1 3.56,-0.12 -1.2,0.02 -2.37,0.06 -3.56,0.12 z m 4.71,-0.12 c 0.78,0 1.57,0.01 2.36,0.03 -0.79,-0.02 -1.57,-0.03 -2.36,-0.03 z m -98.18,105.52 c 0.11,1.58 0.25,3.16 0.44,4.73 -0.19,-1.57 -0.33,-3.16 -0.44,-4.73 z M 322.66,162.93 c 1.56,0.19 3.12,0.4 4.68,0.66 -1.56,-0.26 -3.12,-0.47 -4.68,-0.66 z m -108.85,114.2 c 0.13,0.78 0.26,1.58 0.42,2.36 -0.15,-0.77 -0.29,-1.58 -0.42,-2.36 z m 0.42,2.36 c 0.14,0.77 0.31,1.54 0.48,2.3 -0.17,-0.77 -0.33,-1.52 -0.48,-2.3 z m 1.61,6.92 c 0.21,0.77 0.41,1.55 0.64,2.32 -0.23,-0.76 -0.44,-1.55 -0.64,-2.32 z m 1.35,4.57 c 0.24,0.76 0.49,1.51 0.75,2.26 -0.27,-0.75 -0.51,-1.5 -0.75,-2.26 z m 0.75,2.26 c 0.25,0.71 0.5,1.43 0.77,2.14 -0.26,-0.7 -0.52,-1.43 -0.77,-2.14 z m 1.7,4.48 c 0.3,0.75 0.61,1.48 0.93,2.21 -0.32,-0.73 -0.63,-1.47 -0.93,-2.21 z m 0.93,2.21 c 0.32,0.74 0.63,1.48 0.97,2.21 -0.34,-0.72 -0.65,-1.47 -0.97,-2.21 z m 0.97,2.21 c 0.34,0.73 0.7,1.45 1.06,2.17 -0.36,-0.72 -0.72,-1.44 -1.06,-2.17 z m 2.14,4.31 c 0.38,0.72 0.78,1.43 1.17,2.15 -0.39,-0.71 -0.79,-1.43 -1.17,-2.15 z M 359.25,174.91 c 1.12,0.63 2.23,1.28 3.34,1.97 -1.11,-0.69 -2.22,-1.34 -3.34,-1.97 z M 227.33,312.79 c 0.38,0.61 0.77,1.23 1.17,1.84 -0.4,-0.61 -0.79,-1.22 -1.17,-1.84 z m 1.57,2.46 c 0.42,0.62 0.85,1.24 1.28,1.85 -0.43,-0.62 -0.86,-1.23 -1.28,-1.85 z m 2.72,3.86 c 0.95,1.3 1.95,2.57 2.98,3.83 -1.02,-1.25 -2.03,-2.54 -2.98,-3.83 z M 371.07,182.75 c 1.3,1.01 2.61,2.04 3.87,3.12 -1.27,-1.09 -2.56,-2.1 -3.87,-3.12 z M 244.92,333.79 c 38.64,34.9 98.35,33.74 135.59,-3.49 37.23,-37.24 38.39,-96.96 3.49,-135.59 31.41,35.32 -20.5,44.27 -57.68,81.45 -37.17,37.17 -46.08,89.04 -81.4,57.63 z"
       style="color:#000000;fill:url(#linearGradient3609)"
       inkscape:connector-curvature="0" />
    <path
       id="path6632"
       d="m 239.44,192.87 c -36.65,38.56 -36.03,99.58 1.8,137.42 38.44,38.43 46.67,-15.69 85.1,-54.13 38.43,-38.43 92.59,-46.69 54.15,-85.12 -38.43,-38.44 -100.81,-38.41 -139.25,0.03 -0.6,0.6 -1.22,1.19 -1.8,1.8 z m 11.99,9.17 c 21.4,-21.41 52.05,-25.51 68.42,-9.14 16.37,16.37 12.27,47.02 -9.14,68.43 -21.4,21.4 -52.05,25.5 -68.42,9.13 -16.37,-16.37 -12.27,-47.02 9.14,-68.42 z"
       style="color:#000000;fill:url(#linearGradient3594)"
       inkscape:connector-curvature="0" />
  </g>
  <metadata
     id="metadata6318">
    <rdf:RDF>
      <cc:Work>
        <dc:format>image/svg+xml</dc:format>
        <dc:type
           rdf:resource="http://purl.org/dc/dcmitype/StillImage" />
        <cc:license
           rdf:resource="http://creativecommons.org/licenses/publicdomain/" />
        <dc:publisher>
          <cc:Agent
             rdf:about="http://openclipart.org/">
            <dc:title>Openclipart</dc:title>
          </cc:Agent>
        </dc:publisher>
        <dc:title>Key</dc:title>
        <dc:date>2007-02-27T15:15:43</dc:date>
        <dc:description>A key icon.</dc:description>
        <dc:source>http://openclipart.org/detail/3330/key-by-barretr</dc:source>
        <dc:creator>
          <cc:Agent>
            <dc:title>barretr</dc:title>
          </cc:Agent>
        </dc:creator>
        <dc:subject>
          <rdf:Bag>
            <rdf:li>clip art</rdf:li>
            <rdf:li>clipart</rdf:li>
            <rdf:li>icon</rdf:li>
            <rdf:li>image</rdf:li>
            <rdf:li>key</rdf:li>
            <rdf:li>media</rdf:li>
            <rdf:li>png</rdf:li>
            <rdf:li>public domain</rdf:li>
            <rdf:li>svg</rdf:li>
          </rdf:Bag>
        </dc:subject>
      </cc:Work>
      <cc:License
         rdf:about="http://creativecommons.org/licenses/publicdomain/">
        <cc:permits
           rdf:resource="http://creativecommons.org/ns#Reproduction" />
        <cc:permits
           rdf:resource="http://creativecommons.org/ns#Distribution" />
        <cc:permits
           rdf:resource="http://creativecommons.org/ns#DerivativeWorks" />
      </cc:License>
    </rdf:RDF>
  </metadata>
  <rect
     style="color:#000000;fill:#ff0000;fill-opacity:0;fill-rule:nonzero;stroke:none;stroke-width:1;stroke-miterlimit:4;stroke-dasharray:none;marker:none;visibility:visible;display:inline;overflow:visible;enable-background:accumulate"
     id="rect6322"
     width="442.68826"
     height="442.68826"
     x="84.558434"
     y="505.21939" />
</svg>
