<?xml version="1.0" encoding="UTF-8" standalone="no"?>
<!-- Created with Inkscape (http://www.inkscape.org/) -->

<svg
   width="40.736046mm"
   height="72.459007mm"
   viewBox="0 0 40.736045 72.459008"
   version="1.1"
   id="svg8"
   inkscape:version="1.1.1 (3bf5ae0, 2021-09-20)"
   sodipodi:docname="link_white.svg"
   xmlns:inkscape="http://www.inkscape.org/namespaces/inkscape"
   xmlns:sodipodi="http://sodipodi.sourceforge.net/DTD/sodipodi-0.dtd"
   xmlns="http://www.w3.org/2000/svg"
   xmlns:svg="http://www.w3.org/2000/svg"
   xmlns:rdf="http://www.w3.org/1999/02/22-rdf-syntax-ns#"
   xmlns:cc="http://creativecommons.org/ns#"
   xmlns:dc="http://purl.org/dc/elements/1.1/">
  <defs
     id="defs2" />
  <sodipodi:namedview
     id="base"
     pagecolor="#000000"
     bordercolor="#666666"
     borderopacity="1.0"
     inkscape:pageopacity="0"
     inkscape:pageshadow="2"
     inkscape:zoom="1.979899"
     inkscape:cx="30.052038"
     inkscape:cy="107.58125"
     inkscape:document-units="mm"
     inkscape:current-layer="layer1"
     showgrid="false"
     inkscape:window-width="1920"
     inkscape:window-height="1048"
     inkscape:window-x="1920"
     inkscape:window-y="0"
     inkscape:window-maximized="1"
     fit-margin-top="1"
     fit-margin-left="1"
     fit-margin-right="1"
     fit-margin-bottom="1"
     inkscape:pagecheckerboard="true" />
  <metadata
     id="metadata5">
    <rdf:RDF>
      <cc:Work
         rdf:about="">
        <dc:format>image/svg+xml</dc:format>
        <dc:type
           rdf:resource="http://purl.org/dc/dcmitype/StillImage" />
      </cc:Work>
    </rdf:RDF>
  </metadata>
  <g
     inkscape:label="Layer 1"
     inkscape:groupmode="layer"
     id="layer1"
     transform="translate(-43.172802,-2.2134689)">
    <g
       id="g11"
       transform="matrix(-3.0676153e-5,-1.0020549,1.0020464,-0.00413633,25.020746,102.13853)"
       style="stroke-width:0.99795336;fill:#ffffff">
      <path
         sodipodi:nodetypes="ccsccccccscscccccsssccc"
         inkscape:connector-curvature="0"
         id="rect819"
         d="m 65.199219,27.601562 0.3125,0.01172 c 0,0 -1.921609,-0.08686 -3.953125,0.625 -2.031517,0.711861 -4.556382,2.227912 -6.824219,5.013672 l 6.205078,5.050781 c 1.370276,-1.683216 2.525799,-2.25443 3.265625,-2.513672 0.739826,-0.259241 0.679688,-0.199218 0.679688,-0.199218 l 0.15625,0.01172 h 19.550781 c 2.172037,0.06924 3.36417,0.821834 4.335937,2.03125 0.973224,1.211229 1.583731,3.040311 1.589844,4.931641 0.0061,1.89133 -0.59167,3.751118 -1.582031,5.015625 -0.986061,1.259016 -2.231578,2.067616 -4.441406,2.205078 h -15.51516 l -3.779762,8 h 19.626953 l 0.11914,-0.0078 c 4.347056,-0.25782 8.013718,-2.360449 10.289063,-5.26564 2.275345,-2.905192 3.294538,-6.465865 3.283203,-9.972657 C 98.506244,39.032271 97.46527,35.48507 95.164062,32.621094 92.862855,29.757118 89.15903,27.737178 84.832031,27.603516 l -0.0625,-0.002 z"
         style="color:#000000;font-style:normal;font-variant:normal;font-weight:normal;font-stretch:normal;font-size:medium;line-height:normal;font-family:sans-serif;font-variant-ligatures:normal;font-variant-position:normal;font-variant-caps:normal;font-variant-numeric:normal;font-variant-alternates:normal;font-feature-settings:normal;text-indent:0;text-align:start;text-decoration:none;text-decoration-line:none;text-decoration-style:solid;text-decoration-color:#000000;letter-spacing:normal;word-spacing:normal;text-transform:none;writing-mode:lr-tb;direction:ltr;text-orientation:mixed;dominant-baseline:auto;baseline-shift:baseline;text-anchor:start;white-space:normal;shape-padding:0;clip-rule:nonzero;display:inline;overflow:visible;visibility:visible;opacity:1;isolation:auto;mix-blend-mode:normal;color-interpolation:sRGB;color-interpolation-filters:linearRGB;solid-color:#000000;solid-opacity:1;vector-effect:none;fill:#ffffff;fill-opacity:1;fill-rule:nonzero;stroke:none;stroke-width:7.98362684;stroke-linecap:butt;stroke-linejoin:miter;stroke-miterlimit:4;stroke-dasharray:none;stroke-dashoffset:0;stroke-opacity:1;paint-order:stroke fill markers;color-rendering:auto;image-rendering:auto;shape-rendering:auto;text-rendering:auto;enable-background:accumulate" />
      <path
         sodipodi:nodetypes="ccscscccccccccccscscccc"
         inkscape:connector-curvature="0"
         id="rect819-7"
         d="m 41.986328,19.101562 -0.117187,0.0059 c -4.347056,0.257804 -8.013718,2.360434 -10.289063,5.265625 -2.275345,2.905191 -3.296491,6.467818 -3.285156,9.974609 0.01133,3.506791 1.054262,7.05204 3.355469,9.916016 2.301207,2.863976 6.005032,4.885869 10.332031,5.019531 l 0.0625,0.002 h 19.570312 l -0.3125,-0.01172 c 0,0 1.921609,0.08491 3.953125,-0.626954 2.031517,-0.711861 4.556382,-2.227911 6.824219,-5.013672 L 65.875,38.582031 c -1.370276,1.683217 -2.525798,2.256384 -3.265625,2.515625 -0.739827,0.259242 -0.681641,0.199219 -0.681641,0.199219 l -0.15625,-0.01172 H 42.220703 c -2.172033,-0.06924 -3.362218,-0.821835 -4.333984,-2.03125 -0.973223,-1.211229 -1.585684,-3.04031 -1.591797,-4.93164 -0.0061,-1.891331 0.59167,-3.751118 1.582031,-5.015625 0.984624,-1.257182 2.229804,-2.06585 4.433594,-2.205079 h 14.957961 l 4.346726,-8 z"
         style="color:#000000;font-style:normal;font-variant:normal;font-weight:normal;font-stretch:normal;font-size:medium;line-height:normal;font-family:sans-serif;font-variant-ligatures:normal;font-variant-position:normal;font-variant-caps:normal;font-variant-numeric:normal;font-variant-alternates:normal;font-feature-settings:normal;text-indent:0;text-align:start;text-decoration:none;text-decoration-line:none;text-decoration-style:solid;text-decoration-color:#000000;letter-spacing:normal;word-spacing:normal;text-transform:none;writing-mode:lr-tb;direction:ltr;text-orientation:mixed;dominant-baseline:auto;baseline-shift:baseline;text-anchor:start;white-space:normal;shape-padding:0;clip-rule:nonzero;display:inline;overflow:visible;visibility:visible;opacity:1;isolation:auto;mix-blend-mode:normal;color-interpolation:sRGB;color-interpolation-filters:linearRGB;solid-color:#000000;solid-opacity:1;vector-effect:none;fill:#ffffff;fill-opacity:1;fill-rule:nonzero;stroke:none;stroke-width:7.98362684;stroke-linecap:butt;stroke-linejoin:miter;stroke-miterlimit:4;stroke-dasharray:none;stroke-dashoffset:0;stroke-opacity:1;paint-order:stroke fill markers;color-rendering:auto;image-rendering:auto;shape-rendering:auto;text-rendering:auto;enable-background:accumulate" />
    </g>
  </g>
</svg>
